<?xml version="1.0" standalone="no"?>
<!DOCTYPE svg PUBLIC "-//W3C//DTD SVG 20010904//EN"
 "http://www.w3.org/TR/2001/REC-SVG-20010904/DTD/svg10.dtd">
<svg version="1.0" xmlns="http://www.w3.org/2000/svg"
 width="1024.000000pt" height="1024.000000pt" viewBox="0 0 1024.000000 1024.000000"
 preserveAspectRatio="xMidYMid meet">

<g transform="translate(0.000000,1024.000000) scale(0.100000,-0.100000)"
fill="#000000" stroke="none">
<path d="M4828 7425 c-203 -25 -371 -76 -573 -175 -351 -172 -598 -417 -773
-766 -51 -103 -88 -210 -109 -321 l-17 -90 -70 -35 c-93 -47 -172 -112 -235
-195 -99 -131 -134 -234 -146 -423 -14 -219 43 -409 172 -567 25 -31 41 -53
35 -49 -6 3 -13 2 -17 -4 -3 -5 0 -10 7 -10 7 0 22 -13 33 -29 10 -16 22 -28
26 -25 15 9 18 -14 4 -26 -8 -7 -15 -16 -15 -21 0 -15 22 -10 36 9 13 16 13
16 14 0 0 -10 -4 -18 -10 -18 -5 0 -10 -7 -10 -15 0 -8 5 -15 11 -15 6 0 9 -8
7 -18 -4 -15 -1 -18 18 -14 24 4 33 -11 14 -23 -6 -4 1 -16 16 -28 19 -15 29
-17 32 -9 2 7 8 12 14 12 5 0 6 -9 3 -20 -4 -11 -2 -20 4 -20 6 0 11 7 11 15
0 8 5 15 10 15 6 0 9 -10 8 -23 -3 -24 24 -63 96 -140 24 -26 40 -37 43 -29 3
6 13 12 24 12 10 0 19 5 19 10 0 6 5 10 10 10 16 0 12 -22 -7 -36 -17 -12 -16
-13 4 -14 12 0 23 6 26 13 2 6 7 9 11 6 4 -4 -57 -69 -135 -145 -250 -245
-371 -435 -457 -714 -34 -110 -51 -204 -58 -307 -8 -124 6 -193 46 -227 16
-13 27 -26 24 -28 -2 -3 2 -5 8 -6 51 -4 73 -13 105 -44 78 -73 302 -308 294
-308 -5 0 -14 7 -21 15 -13 15 -40 21 -40 8 0 -3 8 -16 18 -27 17 -21 17 -21
-4 -4 -28 25 -52 22 -56 -4 -2 -13 -9 -22 -16 -21 -6 2 -12 -2 -12 -7 0 -6 -7
-10 -16 -10 -8 0 -13 4 -10 8 2 4 -5 8 -16 8 -18 0 -17 -3 8 -23 16 -13 33
-23 37 -23 4 0 18 -9 30 -21 44 -42 315 -195 487 -275 323 -151 618 -229 1054
-280 107 -13 188 -15 336 -11 471 15 861 98 1255 269 252 109 526 262 507 283
-4 5 -2 5 4 2 13 -8 148 84 163 110 5 10 12 17 16 15 11 -5 75 50 68 61 -3 5
-1 7 4 4 11 -7 118 82 109 90 -2 3 -13 -4 -24 -14 -47 -42 -71 -56 -57 -33 3
6 1 10 -5 10 -7 0 -9 -8 -5 -20 6 -20 3 -20 -54 -16 -37 3 -61 2 -61 -4 0 -6
-10 -10 -21 -10 -16 0 -20 -5 -16 -19 4 -17 1 -18 -27 -10 -17 5 -51 6 -75 3
l-44 -7 21 29 c11 16 74 82 139 146 91 90 127 119 153 125 51 10 87 41 106 90
32 82 3 329 -62 533 -77 245 -205 443 -424 657 -81 78 -89 89 -73 100 9 7 13
16 8 20 -4 5 -10 2 -12 -4 -7 -19 -38 -16 -54 5 -13 15 -12 16 3 4 14 -11 18
-10 26 5 6 10 14 18 19 18 4 0 7 10 5 23 -4 30 6 28 19 -5 8 -21 12 -24 22
-13 9 10 9 14 0 17 -7 2 -9 11 -6 18 4 12 7 12 19 0 8 -7 14 -19 14 -26 0 -10
3 -10 12 -1 10 10 10 15 -2 22 -15 9 -7 25 12 25 6 0 13 6 16 13 2 6 -1 12 -7
12 -6 0 -11 7 -11 16 0 11 5 14 16 10 23 -9 37 3 23 20 -6 8 -9 18 -5 22 4 4
12 -1 17 -11 13 -22 25 -22 33 1 15 39 38 72 48 66 6 -4 6 -10 -1 -17 -6 -6
-11 -17 -11 -24 0 -8 7 -6 20 7 11 11 20 23 20 27 0 3 8 15 17 25 15 17 15 19
-3 34 -18 15 -18 15 4 11 17 -4 22 -1 22 14 0 11 7 19 16 19 23 0 53 37 48 58
-3 10 13 36 41 66 25 27 45 51 45 53 0 11 -21 -1 -46 -27 -16 -16 -33 -30 -38
-30 -5 0 2 10 15 23 76 71 139 175 181 302 21 63 23 88 23 245 0 199 -8 246
-65 365 -62 130 -174 244 -306 312 l-72 37 -16 84 c-47 236 -158 464 -325 664
-289 345 -702 552 -1213 607 -127 14 -365 12 -500 -4z m640 -274 c208 -43 434
-136 591 -244 102 -70 264 -228 333 -324 68 -94 131 -209 158 -287 52 -151 51
-142 48 -762 l-3 -579 -34 -90 c-37 -99 -90 -198 -156 -290 -57 -80 -203 -220
-295 -282 -174 -117 -312 -168 -625 -233 -86 -18 -512 -25 -648 -11 -145 15
-331 60 -461 111 -337 132 -614 418 -713 735 l-28 90 0 575 0 575 28 94 c57
190 158 353 321 516 141 141 253 219 436 299 52 24 129 51 170 61 41 10 80 20
85 24 6 3 17 6 25 8 8 1 42 7 75 13 33 6 83 15 110 20 28 5 147 7 265 6 171
-3 236 -8 318 -25z m-2076 -1786 c-2 -342 -5 -434 -15 -429 -78 46 -156 149
-187 251 -15 48 -20 93 -20 172 0 172 22 254 92 343 25 32 111 98 127 98 3 0
5 -196 3 -435z m3553 360 c84 -83 125 -198 125 -344 0 -110 -19 -199 -56 -273
-29 -57 -133 -168 -158 -168 -14 0 -16 45 -16 430 l0 431 31 -17 c17 -8 51
-35 74 -59z m132 -1017 c-3 -8 -6 -5 -6 6 -1 11 2 17 5 13 3 -3 4 -12 1 -19z
m-3847 -48 c0 -5 -4 -10 -10 -10 -5 0 -10 5 -10 10 0 6 5 10 10 10 6 0 10 -4
10 -10z m3770 -60 c0 -5 -2 -10 -4 -10 -3 0 -8 5 -11 10 -3 6 -1 10 4 10 6 0
11 -4 11 -10z m-3730 -15 c0 -8 -4 -15 -10 -15 -5 0 -10 7 -10 15 0 8 5 15 10
15 6 0 10 -7 10 -15z m3640 -35 c0 -5 -4 -10 -10 -10 -5 0 -10 5 -10 10 0 6 5
10 10 10 6 0 10 -4 10 -10z m-3550 -30 c0 -5 -2 -10 -4 -10 -3 0 -8 5 -11 10
-3 6 -1 10 4 10 6 0 11 -4 11 -10z m30 -30 c0 -5 -4 -10 -10 -10 -5 0 -10 5
-10 10 0 6 5 10 10 10 6 0 10 -4 10 -10z m50 0 c0 -5 -5 -10 -11 -10 -5 0 -7
5 -4 10 3 6 8 10 11 10 2 0 4 -4 4 -10z m-20 -31 c0 -7 7 -17 17 -24 9 -7 13
-17 9 -23 -11 -18 -26 -14 -26 7 0 10 -7 21 -15 25 -8 3 -15 10 -15 16 0 5 7
10 15 10 8 0 15 -5 15 -11z m50 -9 c0 -5 -4 -10 -10 -10 -5 0 -10 5 -10 10 0
6 5 10 10 10 6 0 10 -4 10 -10z m3350 0 c0 -5 -5 -10 -11 -10 -5 0 -7 5 -4 10
3 6 8 10 11 10 2 0 4 -4 4 -10z m-30 -14 c0 -3 -4 -8 -10 -11 -5 -3 -10 -1
-10 4 0 6 5 11 10 11 6 0 10 -2 10 -4z m-3290 -22 c0 -8 -32 -33 -42 -34 -16
0 -7 29 10 33 27 7 32 7 32 1z m3225 -34 c3 -5 1 -10 -4 -10 -6 0 -11 5 -11
10 0 6 2 10 4 10 3 0 8 -4 11 -10z m-2851 -223 c28 -24 64 -52 79 -62 l28 -18
-38 -25 c-41 -28 -161 -121 -207 -162 -15 -14 -56 -59 -91 -100 -141 -170
-237 -358 -269 -530 l-12 -65 -101 -3 -101 -3 4 43 c33 298 143 526 359 743
87 87 262 223 289 225 5 0 32 -20 60 -43z m2610 1 c343 -233 539 -537 574
-890 l8 -78 -96 0 -96 0 -13 68 c-51 258 -250 555 -495 735 -86 64 -111 85
-106 89 24 21 153 118 157 118 3 0 33 -19 67 -42z m-2134 -255 c36 -14 101
-35 144 -47 78 -23 79 -24 96 -68 50 -133 185 -258 331 -309 78 -27 247 -37
330 -20 102 21 196 75 274 155 62 64 135 181 135 215 0 5 22 14 48 20 46 9
127 38 218 76 l41 17 64 -32 c202 -102 395 -283 493 -462 34 -60 75 -167 90
-230 l6 -28 -1499 0 -1500 0 6 38 c9 55 51 169 86 232 92 165 268 331 467 439
43 23 81 38 90 35 8 -4 44 -18 80 -31z m2123 -970 c56 -5 74 -18 40 -30 -10
-3 -26 -15 -37 -26 -15 -15 -16 -21 -6 -27 10 -6 8 -9 -6 -13 -18 -4 -17 -5 1
-6 30 -2 84 -51 94 -87 6 -20 4 -41 -4 -60 -10 -26 -30 -38 -126 -79 -63 -27
-152 -66 -199 -88 -47 -22 -106 -42 -131 -44 -41 -5 -50 -2 -80 25 -31 28 -34
35 -32 84 l2 54 -69 -17 c-37 -9 -72 -19 -77 -22 -4 -3 -44 -13 -88 -22 -44
-9 -83 -21 -86 -27 -6 -9 -11 -9 -21 0 -11 9 -20 8 -38 -5 -13 -9 -20 -11 -16
-5 4 7 1 12 -7 12 -9 0 -14 -12 -15 -35 -3 -83 -40 -108 -174 -120 -51 -5 -68
-10 -68 -21 0 -9 -5 -12 -10 -9 -6 4 -8 10 -5 15 3 4 -3 7 -12 5 -10 -2 -38
-4 -63 -5 -25 -1 -37 -4 -27 -7 20 -5 20 -8 7 -34 -6 -10 -18 -19 -26 -19 -8
0 -12 5 -9 10 3 6 1 10 -6 10 -7 0 -20 6 -28 14 -10 9 -65 18 -156 25 -222 19
-259 23 -276 32 -9 4 -19 6 -23 4 -3 -3 -4 -2 -1 2 7 9 -26 44 -36 38 -4 -3
-11 0 -15 6 -4 8 -3 9 4 5 8 -5 12 3 12 23 0 16 3 36 6 44 4 13 -1 14 -29 8
-23 -6 -39 -4 -52 5 -12 9 -21 10 -25 4 -6 -10 -60 9 -60 21 0 3 -21 7 -46 7
-25 1 -55 7 -66 13 -15 8 -22 8 -27 0 -8 -13 -49 -17 -73 -6 -13 5 -18 3 -18
-8 0 -8 6 -18 13 -20 6 -3 -6 -5 -28 -5 -22 0 -32 2 -22 5 28 7 21 31 -8 25
-14 -2 -25 -8 -25 -13 0 -5 -9 -9 -20 -9 -11 0 -20 -4 -20 -10 0 -14 -42 -12
-62 4 -10 7 -18 21 -18 30 0 9 -8 16 -20 16 -13 0 -20 7 -20 20 0 28 -20 25
-21 -2 l0 -23 -9 23 c-5 12 -14 22 -19 22 -5 0 -11 10 -13 23 -2 12 -9 21 -16
19 -8 -1 -11 2 -8 7 4 5 2 12 -4 16 -5 3 -10 -1 -10 -9 0 -29 -24 -68 -51 -82
-83 -42 -189 18 -189 107 0 27 43 85 70 94 11 3 20 15 20 25 0 23 -47 80 -66
80 -8 0 -14 5 -14 10 0 10 2632 12 2763 3z m627 -307 c0 -22 -42 -48 -55 -35
-7 8 -6 13 3 16 7 3 18 11 25 19 16 18 27 17 27 0z m-226 -21 c-4 -8 -10 -15
-15 -15 -4 0 -6 7 -3 15 4 8 10 15 15 15 4 0 6 -7 3 -15z"/>
<path d="M6134 4866 c-10 -8 -16 -17 -13 -20 3 -3 14 3 24 14 21 23 17 26 -11
6z"/>
<path d="M6089 4825 c-1 -3 -2 -8 -3 -12 -1 -5 -5 -15 -10 -23 -7 -12 -6 -13
4 -3 13 12 23 43 14 43 -2 0 -5 -2 -5 -5z"/>
<path d="M4170 4776 c0 -2 8 -10 18 -17 15 -13 16 -12 3 4 -13 16 -21 21 -21
13z"/>
<path d="M6024 4756 c-10 -8 -17 -17 -14 -19 3 -3 16 3 29 14 27 22 15 26 -15
5z"/>
<path d="M5980 4721 c-8 -6 -18 -7 -22 -5 -4 3 -8 0 -8 -5 0 -15 13 -14 36 4
21 16 17 20 -6 6z"/>
<path d="M5856 4671 c-3 -4 6 -6 19 -3 14 2 25 6 25 8 0 8 -39 4 -44 -5z"/>
<path d="M5754 4659 c-3 -5 6 -9 20 -9 31 0 34 6 6 13 -11 3 -23 1 -26 -4z"/>
<path d="M5815 4660 c-3 -6 1 -7 9 -4 18 7 21 14 7 14 -6 0 -13 -4 -16 -10z"/>
<path d="M6235 2743 c-4 -11 0 -11 18 -2 31 16 32 18 8 16 -11 -1 -23 -7 -26
-14z"/>
<path d="M6185 2720 c-16 -7 -17 -9 -3 -9 9 -1 20 4 23 9 7 11 7 11 -20 0z"/>
<path d="M6080 2680 c-18 -12 -2 -12 25 0 13 6 15 9 5 9 -8 0 -22 -4 -30 -9z"/>
<path d="M4208 2633 c7 -3 16 -2 19 1 4 3 -2 6 -13 5 -11 0 -14 -3 -6 -6z"/>
<path d="M5053 2583 c9 -2 25 -2 35 0 9 3 1 5 -18 5 -19 0 -27 -2 -17 -5z"/>
<path d="M7190 4871 c0 -6 5 -13 10 -16 6 -3 10 1 10 9 0 9 -4 16 -10 16 -5 0
-10 -4 -10 -9z"/>
<path d="M7185 4800 c-3 -5 -2 -10 4 -10 5 0 13 5 16 10 3 6 2 10 -4 10 -5 0
-13 -4 -16 -10z"/>
<path d="M7150 4770 c0 -5 7 -10 15 -10 8 0 15 5 15 10 0 6 -7 10 -15 10 -8 0
-15 -4 -15 -10z"/>
<path d="M7120 4740 c0 -5 4 -10 9 -10 6 0 13 5 16 10 3 6 -1 10 -9 10 -9 0
-16 -4 -16 -10z"/>
<path d="M3121 4724 c0 -11 3 -14 6 -6 3 7 2 16 -1 19 -3 4 -6 -2 -5 -13z"/>
<path d="M7054 4635 c-10 -26 1 -35 13 -10 6 14 7 25 2 25 -5 0 -12 -7 -15
-15z"/>
<path d="M6920 4469 c0 -5 5 -7 10 -4 6 3 10 8 10 11 0 2 -4 4 -10 4 -5 0 -10
-5 -10 -11z"/>
<path d="M6876 4462 c-3 -6 -1 -14 5 -17 15 -10 25 3 12 16 -7 7 -13 7 -17 1z"/>
<path d="M3360 4416 c0 -9 5 -16 10 -16 6 0 10 4 10 9 0 6 -4 13 -10 16 -5 3
-10 -1 -10 -9z"/>
<path d="M6865 4400 c-3 -5 -2 -10 4 -10 5 0 13 5 16 10 3 6 2 10 -4 10 -5 0
-13 -4 -16 -10z"/>
<path d="M3380 4386 c0 -2 7 -7 16 -10 8 -3 12 -2 9 4 -6 10 -25 14 -25 6z"/>
<path d="M6850 4350 c0 -5 5 -10 11 -10 5 0 7 5 4 10 -3 6 -8 10 -11 10 -2 0
-4 -4 -4 -10z"/>
<path d="M6800 4340 c0 -5 5 -10 10 -10 6 0 10 5 10 10 0 6 -4 10 -10 10 -5 0
-10 -4 -10 -10z"/>
<path d="M6792 4286 c7 -8 15 -12 17 -11 5 6 -10 25 -20 25 -5 0 -4 -6 3 -14z"/>
<path d="M7641 3127 c-13 -21 -12 -21 5 -5 10 10 16 20 13 22 -3 3 -11 -5 -18
-17z"/>
<path d="M7460 2930 c-9 -6 -10 -10 -3 -10 6 0 15 5 18 10 8 12 4 12 -15 0z"/>
<path d="M7340 2811 c-8 -10 -23 -22 -34 -28 -10 -6 -14 -13 -9 -16 10 -6 70
49 62 57 -2 3 -11 -3 -19 -13z"/>
<path d="M3121 2608 c2 -2 15 -13 29 -25 19 -16 29 -19 40 -12 12 9 12 10 1 7
-8 -3 -23 4 -33 14 -10 10 -23 18 -30 18 -6 0 -9 -1 -7 -2z"/>
</g>
</svg>
